<?xml version="1.0" encoding="UTF-8"?>
<!DOCTYPE svg PUBLIC "-//W3C//DTD SVG 1.1//EN" "http://www.w3.org/Graphics/SVG/1.1/DTD/svg11.dtd">
<!-- Creator: CorelDRAW X7 -->
<svg xmlns="http://www.w3.org/2000/svg" xml:space="preserve" width="6.62635in" height="6.61249in" version="1.1" style="shape-rendering:geometricPrecision; text-rendering:geometricPrecision; image-rendering:optimizeQuality; fill-rule:evenodd; clip-rule:evenodd"
viewBox="0 0 6653 6639"
 xmlns:xlink="http://www.w3.org/1999/xlink">
 <defs>
  <style type="text/css">
   <![CDATA[
    .fil0 {fill:#40ABD7}
    .fil1 {fill:#E43883}
    .fil2 {fill:#E4CE38}
   ]]>
  </style>
 </defs>
 <g id="Layer_x0020_1">
  <metadata id="CorelCorpID_0Corel-Layer"/>
  <path class="fil0" d="M3885 2226c-44,-53 -50,-114 -18,-175 -23,-70 -44,-82 -85,-137l-29 -40c-11,-15 -5,-5 -25,-32l-23 -32c-7,-8 -16,-21 -25,-33l-212 -287c-5,-7 -15,-21 -24,-33l-214 -288c-6,-9 -15,-21 -24,-34l-206 -281c-2,-1 -19,-21 -26,-30l-229 -314c-18,-24 -25,-35 -46,-65 -2,-2 -5,-5 -6,-8 -2,-2 -5,-5 -6,-7l-12 -16c-9,-12 -16,-24 -23,-34 -31,-38 -64,-80 -96,-126l-11 -18c-2,-2 -4,-5 -6,-7l-167 -219c-197,-10 -1980,-14 -2064,6 -371,88 -303,437 -303,724l0 5158c17,-5 4,4 27,-10l466 -439c58,-45 169,-174 242,-232l312 -290c16,-17 30,-31 53,-56l489 -460c55,-55 75,-77 120,-117 29,-26 41,-36 68,-57l1877 -1777c39,-37 180,-179 226,-234z"/>
  <path class="fil1" d="M697 6639l5764 0c101,-76 123,-104 192,-213l0 -1861c-3,-2 -7,-4 -8,-5l-24 -18c-20,-15 -18,-15 -33,-27 -12,-9 -22,-14 -31,-22l-202 -174c-18,-17 -40,-34 -63,-52l-468 -395c-25,-20 -21,-27 -58,-55l-408 -342c-18,-17 7,2 -28,-27l-206 -174c-12,-9 -22,-14 -31,-22l-140 -125c-22,-18 -35,-23 -56,-42l-61 -53c-26,-19 -23,-17 -52,-39 -65,43 -130,36 -195,-16 -29,32 -79,65 -124,108 -54,50 -82,91 -118,120 -136,110 -347,334 -491,456l-489 459c-48,42 -64,57 -118,116l-970 914c-35,36 -75,63 -128,111 -34,30 -89,93 -116,120 -35,34 -79,64 -128,109 -36,34 -94,100 -116,121 -35,33 -83,65 -129,109 -42,42 -92,100 -116,121 -37,33 -84,65 -128,110 -49,49 -89,97 -117,120l-244 230c-43,35 -84,66 -128,110 -60,59 -74,84 -117,119 -43,34 -87,63 -115,109z"/>
  <path class="fil2" d="M6653 3643l0 -3391c-38,-41 -18,-37 -68,-93 -49,-54 -60,-72 -139,-111 -115,-58 -354,-43 -504,-43 -423,0 -2775,-18 -2857,15l238 222c29,30 86,64 140,124l147 133c53,58 81,66 141,125l760 690c43,41 32,51 92,80 59,-24 41,-23 112,-13 19,41 53,64 93,109l607 648c114,128 111,67 71,206 34,11 184,205 221,242l946 1057z"/>
 </g>
</svg>
